<svg xmlns="http://www.w3.org/2000/svg" viewBox="50 100 200 50" [attr.fill]="this.Fill"
    [attr.width]="this.Width" [attr.height]="this.Height">

    <path
        d="m97.141 111 .359 60H118V51H96.782l.359 60m47.527 27.25c-.36 18.287-.954 41.912-1.319 52.5l-.665 19.25H222v-59h-13v-46h-63.677l-.655 33.25M157 133v18h40v-36h-40v18m-36.187 37.683c.721.289 1.584.253 1.916-.079.332-.332-.258-.568-1.312-.525-1.165.048-1.402.285-.604.604M92.991 181.25c-1.736 4.537-3.796 9.251-4.579 10.474-4.739 7.402-5.277 21.276-.824 21.276 2.228 0 2.412-.382 2.412-5v-5h7v5c0 4.333.267 5 2 5 1.758 0 2-.667 2-5.5V202h7v5.5c0 5.2.136 5.5 2.5 5.5 2.41 0 2.5-.233 2.5-6.5V200h7v6.5c0 5.111.321 6.5 1.5 6.5 1.776 0 1.854-1.184.422-6.344-1.228-4.42-1.227-4.421 2.935-5.615l3.129-.897 1.633 5.616c1.496 5.148 1.747 5.46 3.007 3.737 2.148-2.937 1.51-5.694-6.068-26.247l-3.78-10.25H96.145l-3.154 8.25M166 222.5V233h43v-21h-43v10.5M93 224v9h43v-18H93v9"
        fill-rule="evenodd" />

</svg>